# xmcd CD database file
#
# Track frame offsets:
#	150
#	7392
#	17670
#	29582
#	40050
#	55270
#	75680
#	95550
#	114917
#	144262
#	162310
#	174910
#	196137
#	212250
#	226837
#	237415
#	249632
#	260017
#
# Disc length: 3567 seconds
#
# Revision: 2
# Processed by: cddbd v1.5.2PL0 Copyright (c) Steve Scherf et al.
# Submitted via: CDex 1.51
#
DISCID=e80ded12
DTITLE=Edvard Grieg - Songs - Lieder Vol.1
DYEAR=1991
DGENRE=Classique
TTITLE0=Four Songs Op.15 - Margrete's Cradlesong
TTITLE1=Four Songs Op.15 - Love
TTITLE2=Four Songs Op.15 - Langeland Folksong
TTITLE3=Four Songs Op.15 - A Mother's Grief
TTITLE4=Three Songs from ''Peer Gynt'' Op.23 - Peer Gynt's Serenade
TTITLE5=Three Songs from ''Peer Gynt'' Op.23 - Solveig's Song
TTITLE6=Three Songs from ''Peer Gynt'' Op.23 - Solveig's Cradlesong
TTITLE7=Six Songs by Holger Drachmann Op.49 - Tell me now, did you see the lad
TTITLE8=Six Songs by Holger Drachmann Op.49 - Rocking, Rocking on gentle Waves
TTITLE9=Six Songs by Holger Drachmann Op.49 - Kind Greetings, Fair Ladies
TTITLE10=Six Songs by Holger Drachmann Op.49 - Now is Evening Light and Long
TTITLE11=Six Songs by Holger Drachmann Op.49 - Christmas Song
TTITLE12=Six Songs by Holger Drachmann Op.49 - Spring Showers
TTITLE13=Five Songs by Vilhelm Krag Op.60 - Little Kirsten
TTITLE14=Five Songs by Vilhelm Krag Op.60 - The Mother's Lament
TTITLE15=Five Songs by Vilhelm Krag Op.60 - On the Water
TTITLE16=Five Songs by Vilhelm Krag Op.60 - A Bird cried out
TTITLE17=Five Songs by Vilhelm Krag Op.60 - Midsummer Eve
EXTD=YEAR: 1991
EXTT0=
EXTT1=
EXTT2=
EXTT3=
EXTT4=
EXTT5=
EXTT6=
EXTT7=
EXTT8=
EXTT9=
EXTT10=
EXTT11=
EXTT12=
EXTT13=
EXTT14=
EXTT15=
EXTT16=
EXTT17=
PLAYORDER=
